<svg width="216" height="303" xmlns="http://www.w3.org/2000/svg" xmlns:xlink="http://www.w3.org/1999/xlink" overflow="hidden"><defs><clipPath id="clip0"><rect x="989" y="352" width="216" height="303"/></clipPath></defs><g clip-path="url(#clip0)" transform="translate(-989 -352)"><path d="M1096.55 401.713C1099.1 401.713 1101.22 403.782 1101.22 406.38L1102.86 515.296 1126.51 515.392C1128 515.44 1129.25 515.488 1130.12 515.392 1131.18 515.247 1132.24 514.863 1133.15 514.237 1135.51 512.505 1137.2 510.004 1137.92 507.165 1138.79 503.846 1138.64 500.382 1137.58 497.159 1136.43 492.252 1135.75 487.201 1135.56 482.149 1135.13 472.143 1137.29 462.762 1139.41 453.718 1139.89 451.361 1142.06 449.773 1144.42 450.013 1147.02 450.254 1148.9 452.563 1148.66 455.113L1147.31 468.775C1147.02 472.961 1147.12 477.146 1147.6 481.283 1148.03 485.469 1148.81 489.606 1150.06 493.647 1152.03 499.035 1152.42 504.904 1151.21 510.533 1149.96 516.739 1146.4 522.271 1141.29 526.023 1138.5 528.044 1135.22 529.343 1131.8 529.824 1130.02 530.016 1128.29 530.065 1126.55 530.065 1125.78 530.065 1125.01 530.065 1124.15 530.113L1103 530.305 1104.01 597.656C1104.06 599.628 1103.29 601.552 1101.89 602.996 1099 605.978 1094.24 606.026 1091.25 603.14 1089.81 601.745 1088.99 599.821 1088.99 597.848L1090.05 530.209 1069.05 530.065C1067.99 530.016 1067.12 530.016 1066.3 530.016 1064.66 530.016 1063.03 529.92 1061.44 529.776 1057.97 529.295 1054.65 527.996 1051.76 525.927 1046.6 522.175 1043.04 516.643 1041.83 510.389 1040.63 504.712 1041.06 498.795 1043.09 493.358 1044.19 489.414 1044.97 485.373 1045.35 481.332 1045.83 477.098 1045.93 472.816 1045.64 468.583L1044.34 455.065C1044.1 452.611 1045.83 450.398 1048.24 450.013 1050.7 449.581 1053.06 451.168 1053.59 453.573 1055.61 462.233 1057.87 472.047 1057.49 482.149 1057.3 487.104 1056.67 492.06 1055.56 496.87 1054.45 500.19 1054.31 503.798 1055.18 507.165 1055.9 510.004 1057.58 512.505 1059.94 514.237 1060.86 514.863 1061.97 515.247 1063.07 515.392 1063.65 515.44 1064.62 515.392 1065.58 515.392L1066.54 515.392C1067.51 515.344 1068.28 515.344 1069.1 515.344L1090.24 515.296 1091.88 406.38C1091.88 403.83 1093.95 401.713 1096.55 401.713ZM1094.53 363.949C1074.49 363.949 1055.85 371.791 1040.58 386.656 1014.96 411.624 1000.9 453.092 1000.94 503.509 1000.9 553.926 1014.96 595.443 1040.58 620.411 1056.52 635.949 1075.84 643.791 1096.31 643.069 1117.16 643.695 1136.52 635.853 1152.37 620.411 1177.99 595.443 1192.1 553.926 1192.01 503.509 1192.06 453.092 1177.99 411.624 1152.37 386.656 1136.43 371.117 1117.11 363.324 1096.64 363.997 1095.87 363.949 1095.2 363.949 1094.53 363.949ZM1096.64 352.018C1120.49 351.537 1142.69 360.533 1160.7 378.093 1188.68 405.322 1204.05 449.869 1204 503.461 1204.05 557.101 1188.68 601.649 1160.75 628.878 1143.75 646.004 1120.49 655.433 1096.36 654.952 1095.68 655 1094.91 655 1094.14 655 1071.17 655 1049.78 646.004 1032.25 628.926 1004.32 601.697 988.952 557.149 989 503.509 988.952 449.869 1004.32 405.322 1032.25 378.093 1049.25 360.966 1072.51 351.537 1096.64 352.018Z" fill="#F167A7" fill-rule="evenodd"/></g></svg>